<?xml version="1.0" encoding="UTF-8" standalone="no"?>
<svg
   xmlns:dc="http://purl.org/dc/elements/1.1/"
   xmlns:cc="http://creativecommons.org/ns#"
   xmlns:rdf="http://www.w3.org/1999/02/22-rdf-syntax-ns#"
   xmlns:svg="http://www.w3.org/2000/svg"
   xmlns="http://www.w3.org/2000/svg"
   xmlns:sodipodi="http://sodipodi.sourceforge.net/DTD/sodipodi-0.dtd"
   xmlns:inkscape="http://www.inkscape.org/namespaces/inkscape"
   sodipodi:docname="GODOT-ECMAScript.logo.svg"
   inkscape:version="1.0 (4035a4fb49, 2020-05-01)"
   id="svg8"
   version="1.1"
   viewBox="0 0 210 297"
   height="297mm"
   width="210mm">
  <defs
     id="defs2">
        
    </defs>
  <sodipodi:namedview
     inkscape:window-maximized="0"
     inkscape:window-y="40"
     inkscape:window-x="203"
     inkscape:window-height="938"
     inkscape:window-width="1691"
     showgrid="false"
     inkscape:document-rotation="0"
     inkscape:current-layer="layer1"
     inkscape:document-units="mm"
     inkscape:cy="1148.5419"
     inkscape:cx="188.96833"
     inkscape:zoom="0.7"
     inkscape:pageshadow="2"
     inkscape:pageopacity="0.0"
     borderopacity="1.0"
     bordercolor="#666666"
     pagecolor="#ffffff"
     id="base" />
  <metadata
     id="metadata5">
    <rdf:RDF>
      <cc:Work
         rdf:about="">
        <dc:format>image/svg+xml</dc:format>
        <dc:type
           rdf:resource="http://purl.org/dc/dcmitype/StillImage" />
        <dc:title></dc:title>
      </cc:Work>
    </rdf:RDF>
  </metadata>
  <g
     id="layer1"
     inkscape:groupmode="layer"
     inkscape:label="Calque 1">
    <g
       transform="matrix(0.2449322,0,0,0.26428541,27.122109,204.87714)"
       id="Background"
       style="clip-rule:evenodd;fill-rule:evenodd;stroke-linejoin:round;stroke-miterlimit:1.41421;fill:#478cbf;fill-opacity:1">
        <rect
   id="rect847"
   style="fill:#478cbf;fill-opacity:1"
   height="402.35101"
   width="432.668"
   y="24.879999"
   x="18.771" />

    </g>
    <g
       transform="matrix(2.3125299,0,0,2.3125299,-109.85149,-278.95244)"
       style="fill:#478cbf;fill-opacity:1"
       id="g977">
      <path
         id="path84-6"
         style="fill:#478cbf;fill-opacity:1;fill-rule:nonzero;stroke:none;stroke-width:0.25424"
         d="m 196.41797,804.98047 c -8.08333,1.79701 -16.07942,4.2989 -23.57617,8.07226 0.17144,6.6197 0.59925,12.96161 1.46679,19.4043 -2.91139,1.86524 -5.97014,3.46685 -8.68945,5.65039 -2.76296,2.12561 -5.58606,4.15859 -8.08789,6.64453 -4.9981,-3.30587 -10.28659,-6.41198 -15.73633,-9.15429 -5.87437,6.32201 -11.36853,13.14558 -15.85547,20.78125 3.37573,5.46085 6.89995,10.5799 10.70508,15.4375 h 0.10742 v 37.71289 4.78906 4.35937 c 0.0857,8e-4 0.17094,0.004 0.25586,0.0117 l 28.73047,2.76953 c 1.50491,0.14514 2.68429,1.35717 2.78906,2.86524 l 0.88477,12.68164 25.06055,1.78906 1.72656,-11.70508 c 0.22382,-1.51759 1.52548,-2.64257 3.06055,-2.64257 h 30.3125 c 1.53427,0 2.83476,1.12498 3.05859,2.64257 l 1.72656,11.70508 25.0625,-1.78906 0.88477,-12.68164 c 0.10556,-1.50807 1.28415,-2.71916 2.78906,-2.86524 l 28.71875,-2.76953 c 0.0849,-0.008 0.17014,-0.0117 0.25586,-0.0117 v -3.73828 l 0.0117,-0.004 v -43.11914 h 0.10547 c 3.80592,-4.8576 7.32778,-9.97665 10.70507,-15.4375 -4.48533,-7.63567 -9.98108,-14.45924 -15.85546,-20.78125 -5.44815,2.74231 -10.7402,5.84842 -15.73828,9.15429 -2.50104,-2.48594 -5.31705,-4.51892 -8.08399,-6.64453 -2.71852,-2.18354 -5.78166,-3.78515 -8.6875,-5.65039 0.86516,-6.44269 1.2926,-12.7846 1.46484,-19.4043 -7.49755,-3.77336 -15.49278,-6.27525 -23.58007,-8.07226 -3.22889,5.42672 -6.18223,11.30383 -8.75391,17.04883 -3.0495,-0.50956 -6.11193,-0.69982 -9.17969,-0.73633 v -0.004 c -0.0215,0 -0.0423,0.004 -0.0605,0.004 -0.0189,0 -0.0395,-0.004 -0.0586,-0.004 v 0.004 c -3.07331,0.0378 -6.1333,0.22662 -9.18359,0.73633 -2.57009,-5.745 -5.52221,-11.62211 -8.75586,-17.04883 z m -22.72852,68.55273 c 9.56284,0 17.3125,7.74502 17.3125,17.30469 0,9.56602 -7.74966,17.31641 -17.3125,17.31641 -9.55806,0 -17.31054,-7.75039 -17.31054,-17.31641 0,-9.55967 7.75248,-17.30469 17.31054,-17.30469 z m 81.45508,0 c 9.55727,0 17.30859,7.74502 17.30859,17.30469 0,9.56602 -7.75132,17.31641 -17.30859,17.31641 -9.56442,0 -17.3164,-7.75039 -17.31641,-17.31641 0,-9.55967 7.75199,-17.30469 17.31641,-17.30469 z m -40.73047,10.12696 c 3.07808,0 5.57813,2.27055 5.57813,5.06445 v 15.93945 c 0,2.79632 -2.50005,5.06446 -5.57813,5.06446 -3.07807,0 -5.57226,-2.26814 -5.57226,-5.06446 v -15.93945 c 0,-2.7939 2.49419,-5.06445 5.57226,-5.06445 z"
         transform="scale(0.26458333)" />
      <path
         inkscape:connector-curvature="0"
         id="path88-5"
         style="fill:#478cbf;fill-opacity:1;fill-rule:nonzero;stroke:none;stroke-width:0.0672678"
         d="m 70.456999,245.36599 -0.235418,3.37334 c -0.02835,0.40658 -0.351762,0.7302 -0.758336,0.75939 l -8.096823,0.57773 c -0.01974,0.001 -0.03948,0.002 -0.05901,0.002 -0.402374,0 -0.749516,-0.29527 -0.808948,-0.69932 l -0.464325,-3.14885 h -6.606614 l -0.464325,3.14885 c -0.06237,0.42379 -0.441225,0.72851 -0.86796,0.69722 l -8.096824,-0.57773 c -0.406573,-0.0292 -0.729984,-0.35281 -0.758335,-0.75939 l -0.235418,-3.37334 -6.835101,-0.659 c 0.0032,0.7346 0.0126,1.53935 0.0126,1.69959 0,7.21878 9.15736,10.68852 20.534704,10.72842 h 0.01386 0.01407 c 11.377345,-0.0399 20.531555,-3.50964 20.531555,-10.72842 0,-0.16318 0.0099,-0.96457 0.01323,-1.69959 z" />
      <path
         inkscape:connector-curvature="0"
         id="path96-2"
         style="fill:#478cbf;fill-opacity:1;fill-rule:nonzero;stroke:none;stroke-width:0.0672678"
         d="m 49.433916,235.97276 c 0,1.6788 -1.360636,3.03943 -3.040693,3.03943 -1.679217,0 -3.040693,-1.36063 -3.040693,-3.03943 0,-1.6788 1.361476,-3.04069 3.040693,-3.04069 1.680057,0 3.040693,1.36189 3.040693,3.04069" />
      <path
         inkscape:connector-curvature="0"
         id="path108-9"
         style="fill:#478cbf;fill-opacity:1;fill-rule:nonzero;stroke:none;stroke-width:0.0672678"
         d="m 64.028008,235.97276 c 0,1.6788 1.360216,3.03943 3.039013,3.03943 1.680477,0 3.040693,-1.36063 3.040693,-3.03943 0,-1.6788 -1.360216,-3.04069 -3.040693,-3.04069 -1.678797,0 -3.039013,1.36189 -3.039013,3.04069" />
    </g>
    <path
       id="path872"
       style="font-weight:700;font-size:258.257px;font-family:OpenSans-Bold, 'Open Sans', sans-serif;clip-rule:evenodd;fill:#ffffff;fill-rule:evenodd;stroke-width:0.264583;stroke-linejoin:round;stroke-miterlimit:1.41421;fill-opacity:1"
       d="M 61.951404,258.56989 H 96.61712 v 9.70907 H 74.796737 v 9.27533 h 20.519168 v 9.70907 H 74.796737 v 11.41066 h 22.554401 v 9.70907 H 61.951404 Z" />
    <path
       transform="scale(0.26458333)"
       d="M 475.75781 973.86719 C 453.05946 973.86719 435.65854 978.91184 423.55273 989 C 411.44693 999.08816 405.39453 1013.5048 405.39453 1032.252 C 405.39453 1047.2161 409.72379 1059.1123 418.38281 1067.9395 C 427.12589 1076.7666 440.91292 1083.1972 459.74414 1087.2324 L 478.5332 1091.3945 C 489.96645 1093.9166 497.57437 1096.7742 501.35742 1099.9688 C 505.22456 1103.1633 507.1582 1107.7031 507.1582 1113.5879 C 507.1582 1120.1452 504.34154 1125.1898 498.70898 1128.7207 C 493.0764 1132.2515 484.96365 1134.0176 474.37109 1134.0176 C 463.94665 1134.0176 453.10302 1132.4192 441.83789 1129.2246 C 430.65686 1125.946 419.05495 1121.1118 407.0332 1114.7227 L 407.0332 1155.707 C 419.05495 1160.1626 431.07594 1163.5251 443.09766 1165.7949 C 455.11938 1168.0648 467.09945 1169.1992 479.03711 1169.1992 C 495.64403 1169.1992 509.42537 1167.013 520.41992 1162.668 L 520.41992 1058.8438 C 513.49847 1056.1047 505.38301 1053.7958 496.06055 1051.9238 L 475.38086 1047.7637 C 465.54492 1045.746 458.73425 1043.3504 454.95117 1040.5762 C 451.2522 1037.7179 449.40234 1033.7648 449.40234 1028.7207 C 449.40234 1021.9953 452.17809 1017.0364 457.72656 1013.8418 C 463.27506 1010.6472 471.84979 1009.0488 483.45117 1009.0488 C 492.19425 1009.0488 501.48242 1010.2262 511.31836 1012.5801 C 514.32735 1013.3002 517.36373 1014.1397 520.41992 1015.0723 L 520.41992 978.36133 C 516.11218 977.54484 511.85831 976.84468 507.66211 976.26367 C 496.73328 974.66637 486.0982 973.86719 475.75781 973.86719 z "
       style="font-weight:700;font-size:258.257px;font-family:OpenSans-Bold, 'Open Sans', sans-serif;clip-rule:evenodd;fill:#ffffff;fill-rule:evenodd;stroke-width:0.999999;stroke-linejoin:round;stroke-miterlimit:1.41421;fill-opacity:1"
       id="path874" />
  </g>
</svg>
